<?xml version="1.0" encoding="UTF-8" ?>
<!DOCTYPE svg PUBLIC "-//W3C//DTD SVG 1.1//EN" "http://www.w3.org/Graphics/SVG/1.1/DTD/svg11.dtd">
<svg width="2000pt" height="2000pt" viewBox="0 0 2000 2000" version="1.1" xmlns="http://www.w3.org/2000/svg">
<g id="#3385d9ff">
<path fill="#3385d9" opacity="1.00" d=" M 969.04 641.30 C 978.26 639.51 987.68 640.43 997.00 640.21 C 1006.33 640.47 1015.76 639.50 1025.00 641.15 C 1052.90 644.88 1077.77 664.88 1087.73 691.17 C 1092.74 703.79 1093.70 717.56 1093.47 731.00 C 1093.54 756.80 1093.34 782.61 1093.57 808.41 C 1099.22 803.81 1103.97 798.24 1109.24 793.23 C 1124.56 777.89 1139.91 762.57 1155.27 747.26 C 1170.36 731.57 1192.21 722.45 1214.00 723.07 C 1230.37 723.00 1246.50 728.83 1259.78 738.26 C 1267.48 743.77 1273.85 750.81 1280.56 757.44 C 1289.14 766.19 1298.64 774.43 1304.46 785.42 C 1319.05 810.43 1318.42 843.48 1302.79 867.87 C 1297.50 876.63 1289.83 883.50 1282.73 890.73 C 1267.90 905.67 1253.02 920.54 1238.25 935.54 C 1217.43 933.93 1197.29 926.85 1179.09 916.79 C 1155.09 903.91 1134.24 886.08 1114.47 867.54 C 1106.95 860.31 1100.08 852.11 1090.83 847.01 C 1087.91 845.49 1084.52 844.03 1081.22 845.15 C 1074.83 846.54 1070.77 852.23 1067.18 857.23 C 1061.16 865.37 1057.70 875.23 1050.56 882.56 C 1044.29 889.24 1035.07 893.07 1025.86 891.86 C 1041.21 882.07 1048.17 861.20 1042.21 844.10 C 1035.80 825.72 1014.99 813.62 995.85 817.51 C 979.61 820.32 965.58 834.01 963.33 850.49 C 962.38 861.36 963.52 873.45 970.95 882.05 C 974.47 886.49 979.62 889.03 984.37 891.91 C 976.22 892.40 967.43 892.15 960.41 887.47 C 951.79 882.36 947.30 873.05 942.35 864.78 C 938.06 858.24 933.66 851.23 926.73 847.21 C 922.82 845.09 918.02 843.91 913.72 845.56 C 904.15 848.73 897.52 856.73 890.39 863.40 C 864.38 888.47 836.04 912.49 802.06 925.89 C 787.79 931.76 772.55 935.32 757.12 935.87 C 737.89 916.42 718.49 897.16 699.35 877.63 C 677.21 853.18 673.69 814.49 690.11 786.05 C 695.36 776.10 703.52 768.24 711.44 760.43 C 720.25 751.93 728.27 742.37 738.73 735.78 C 751.91 727.54 767.36 722.56 783.01 723.07 C 798.25 722.87 813.29 727.88 826.08 736.03 C 834.92 741.59 841.83 749.52 849.24 756.75 C 863.24 770.76 877.25 784.75 891.27 798.73 C 894.60 802.00 897.71 805.54 901.43 808.41 C 901.65 779.60 901.48 750.80 901.51 721.99 C 900.55 696.18 913.58 670.55 934.51 655.56 C 944.75 648.31 956.53 642.96 969.04 641.30 Z" />
<path fill="#3385d9" opacity="1.00" d=" M 636.73 955.79 C 648.80 948.41 662.95 944.97 677.01 944.61 C 700.36 944.68 723.70 944.56 747.05 944.67 C 749.53 945.05 750.77 947.85 752.63 949.37 C 762.50 959.56 776.85 965.03 790.99 964.37 C 794.30 964.47 797.58 963.53 800.89 963.70 C 807.19 968.67 814.18 972.97 822.12 974.72 C 834.87 978.04 848.45 975.68 860.39 970.55 C 868.18 976.57 878.29 979.07 888.03 978.37 C 895.73 978.15 902.86 975.01 909.91 972.23 C 919.72 978.42 931.70 982.06 943.30 979.50 C 948.14 978.91 952.26 976.18 956.73 974.49 C 961.56 977.32 966.60 980.08 972.21 980.97 C 976.09 981.50 980.01 981.78 983.91 982.21 C 984.13 1008.47 983.93 1034.74 984.02 1061.00 C 984.03 1063.76 984.01 1066.52 983.81 1069.28 C 951.33 1061.78 918.58 1054.62 887.52 1042.27 C 880.33 1039.27 872.87 1036.32 866.88 1031.21 C 874.92 1027.34 883.86 1025.94 892.63 1024.86 C 907.04 1023.40 921.52 1022.90 936.00 1022.91 C 944.71 1023.06 954.27 1025.04 962.19 1020.30 C 970.65 1015.97 969.87 1001.14 960.73 998.09 C 953.45 995.65 945.69 994.34 938.00 994.82 C 925.68 995.59 913.34 995.69 901.00 995.80 C 887.23 996.64 873.39 997.68 859.93 1000.89 C 850.06 1003.66 839.97 1007.17 832.32 1014.27 C 828.07 1018.36 824.39 1023.44 823.19 1029.32 C 821.69 1034.80 823.91 1040.51 826.73 1045.19 C 832.88 1054.92 843.12 1060.96 853.14 1066.05 C 882.97 1080.14 915.69 1085.98 947.71 1092.85 C 943.28 1096.71 938.51 1100.21 934.64 1104.65 C 927.14 1112.97 922.04 1123.31 919.28 1134.13 C 916.92 1142.71 917.66 1152.15 921.57 1160.19 C 926.03 1169.86 933.90 1177.31 941.72 1184.31 C 951.36 1192.09 961.56 1199.25 972.55 1205.01 C 958.89 1214.95 945.33 1225.54 935.11 1239.15 C 927.29 1249.69 921.96 1263.45 925.60 1276.60 C 929.33 1290.31 939.44 1300.97 949.44 1310.55 C 955.51 1316.54 962.21 1321.84 968.77 1327.30 C 971.82 1329.76 974.80 1332.36 978.26 1334.28 C 975.78 1327.73 971.36 1322.15 968.37 1315.84 C 961.70 1302.66 954.54 1289.04 953.76 1273.99 C 953.91 1267.96 956.00 1262.12 959.09 1256.99 C 963.57 1249.47 969.46 1242.82 976.25 1237.31 C 978.92 1235.21 980.19 1231.54 983.72 1230.60 C 984.48 1257.34 983.61 1284.14 984.16 1310.89 C 985.65 1320.64 996.54 1326.59 1005.81 1324.57 C 1013.12 1323.05 1020.93 1318.24 1022.65 1310.53 C 1024.06 1286.02 1024.93 1261.47 1026.40 1236.96 C 1026.42 1235.00 1026.42 1233.05 1026.41 1231.11 C 1026.91 1231.16 1027.89 1231.26 1028.39 1231.30 C 1029.10 1235.45 1032.98 1237.53 1035.61 1240.40 C 1043.84 1248.26 1051.39 1257.73 1053.53 1269.20 C 1054.87 1274.89 1053.64 1280.78 1052.12 1286.32 C 1048.66 1297.88 1042.82 1308.52 1036.94 1319.00 C 1034.26 1323.80 1030.89 1328.23 1028.71 1333.30 C 1033.49 1331.77 1036.75 1327.66 1040.71 1324.79 C 1054.83 1312.96 1069.77 1300.87 1078.19 1284.09 C 1083.66 1273.61 1082.79 1260.79 1077.79 1250.32 C 1068.49 1230.99 1050.88 1217.58 1033.95 1205.25 C 1047.60 1197.24 1061.15 1188.65 1072.40 1177.40 C 1080.68 1168.87 1088.09 1158.28 1088.66 1146.00 C 1089.29 1139.25 1086.91 1132.77 1084.84 1126.46 C 1081.77 1118.42 1077.62 1110.61 1071.56 1104.41 C 1067.63 1100.14 1063.22 1096.37 1058.66 1092.82 C 1090.64 1086.06 1123.27 1080.13 1153.09 1066.18 C 1161.26 1062.09 1169.37 1057.44 1175.55 1050.57 C 1180.71 1045.19 1184.93 1037.66 1183.45 1029.99 C 1181.98 1024.38 1178.88 1019.27 1174.92 1015.07 C 1167.26 1007.60 1156.97 1003.77 1146.84 1000.96 C 1126.29 996.04 1105.03 995.74 1084.01 995.47 C 1074.36 995.58 1064.59 993.58 1055.05 995.76 C 1050.62 996.69 1045.88 997.34 1042.16 1000.14 C 1038.17 1003.35 1037.82 1009.12 1038.95 1013.75 C 1040.48 1018.79 1045.61 1021.68 1050.50 1022.66 C 1058.24 1024.40 1066.16 1022.80 1074.00 1022.88 C 1089.27 1023.13 1104.57 1023.49 1119.73 1025.61 C 1126.46 1026.72 1133.26 1028.09 1139.45 1031.10 C 1132.42 1037.21 1123.37 1040.34 1114.83 1043.75 C 1093.12 1052.22 1070.42 1057.63 1047.97 1063.71 C 1040.76 1065.42 1033.54 1067.09 1026.37 1068.91 C 1026.47 1040.08 1026.53 1011.25 1026.34 982.42 C 1034.36 982.76 1041.90 979.04 1048.12 974.26 C 1054.47 977.88 1061.58 980.46 1068.98 980.26 C 1077.66 980.50 1085.72 976.65 1092.94 972.24 C 1100.57 975.48 1108.51 978.72 1116.98 978.42 C 1125.66 978.77 1134.08 975.66 1141.16 970.79 C 1148.85 973.46 1156.71 976.06 1164.95 976.24 C 1174.22 976.56 1183.61 974.32 1191.69 969.73 C 1194.82 967.97 1197.45 965.46 1200.52 963.61 C 1208.26 964.35 1216.23 965.08 1223.88 963.19 C 1233.72 960.64 1243.10 955.56 1249.79 947.80 C 1251.18 946.33 1252.58 944.18 1254.93 944.62 C 1272.95 944.63 1290.97 944.63 1309.00 944.63 C 1319.52 944.25 1330.13 945.08 1340.31 947.92 C 1358.83 953.56 1375.43 965.84 1385.49 982.47 C 1394.92 997.09 1398.27 1014.80 1397.79 1032.00 C 1397.38 1045.18 1398.87 1058.53 1396.33 1071.56 C 1392.91 1089.04 1383.49 1105.31 1369.97 1116.92 C 1354.98 1130.02 1334.88 1137.05 1315.00 1136.38 C 1286.54 1136.43 1258.08 1136.25 1229.62 1136.47 C 1246.29 1154.08 1263.73 1170.97 1280.73 1188.27 C 1288.72 1196.62 1297.84 1204.17 1303.59 1214.38 C 1318.82 1239.28 1318.81 1272.66 1303.36 1297.46 C 1297.23 1307.65 1288.35 1315.69 1280.06 1324.06 C 1274.84 1329.15 1269.94 1334.60 1264.29 1339.24 C 1249.82 1351.41 1230.97 1358.43 1212.00 1357.93 C 1191.04 1358.14 1170.39 1349.14 1155.75 1334.24 C 1140.84 1319.48 1126.07 1304.59 1111.22 1289.78 C 1105.29 1284.10 1099.88 1277.86 1093.57 1272.60 C 1093.32 1302.39 1093.58 1332.19 1093.44 1361.98 C 1093.09 1378.40 1087.64 1394.70 1077.83 1407.89 C 1066.75 1423.19 1050.01 1434.25 1031.59 1438.48 C 1020.31 1441.50 1008.54 1440.67 997.00 1440.79 C 985.19 1440.70 973.13 1441.48 961.64 1438.15 C 943.13 1433.60 926.60 1421.95 915.81 1406.28 C 906.82 1393.34 901.80 1377.74 901.55 1361.98 C 901.43 1332.19 901.68 1302.39 901.43 1272.59 C 895.44 1277.51 890.36 1283.42 884.77 1288.76 C 869.56 1303.88 854.44 1319.10 839.23 1334.22 C 824.60 1349.13 803.94 1358.09 783.00 1357.93 C 764.27 1358.45 745.64 1351.64 731.26 1339.71 C 724.85 1334.49 719.35 1328.30 713.44 1322.56 C 705.85 1314.82 697.55 1307.58 691.89 1298.22 C 676.02 1273.28 675.92 1239.51 691.37 1214.36 C 696.16 1205.80 703.47 1199.17 710.27 1192.27 C 725.08 1177.41 739.85 1162.51 754.64 1147.64 C 758.21 1143.91 762.05 1140.42 765.38 1136.47 C 736.92 1136.24 708.46 1136.43 680.00 1136.38 C 658.50 1137.16 636.53 1129.05 621.36 1113.65 C 605.83 1098.87 596.94 1077.42 597.22 1056.00 C 597.24 1043.64 597.14 1031.28 597.26 1018.92 C 598.90 993.09 614.24 968.59 636.73 955.79 Z" />
<path fill="#3385d9" opacity="1.00" d=" M 965.06 1121.12 C 970.78 1116.30 977.25 1112.42 983.91 1109.05 C 984.01 1132.07 984.19 1155.11 983.82 1178.13 C 974.98 1175.27 967.77 1169.14 961.35 1162.64 C 956.20 1157.44 953.05 1150.29 952.80 1142.97 C 953.08 1134.17 958.76 1126.75 965.06 1121.12 Z" />
<path fill="#3385d9" opacity="1.00" d=" M 1026.41 1108.98 C 1033.91 1113.01 1041.44 1117.43 1047.10 1123.92 C 1054.16 1131.22 1056.82 1142.37 1053.81 1152.08 C 1051.96 1159.43 1046.61 1165.22 1040.72 1169.69 C 1036.66 1173.57 1031.65 1176.17 1026.45 1178.15 C 1026.41 1155.09 1026.49 1132.04 1026.41 1108.98 Z" />
</g>
</svg>
