<?xml version="1.0" encoding="utf-8"?>
<!-- Generator: Adobe Illustrator 20.0.0, SVG Export Plug-In . SVG Version: 6.00 Build 0)  -->
<svg version="1.1" id="Layer_1" xmlns="http://www.w3.org/2000/svg" xmlns:xlink="http://www.w3.org/1999/xlink" x="0px" y="0px"
	 viewBox="0 0 258.3 342.9" style="enable-background:new 0 0 258.3 342.9;" xml:space="preserve">
<style type="text/css">
	.st0{fill:#FFFFFF;}
	.st1{fill:none;stroke:#ED1C24;stroke-width:0.29;stroke-miterlimit:3.86;}
	.st2{fill:#00A651;}
	.st3{fill:#FFF200;}
	.st4{fill:none;}
	.st5{fill:#231F20;}
	.st6{fill:none;stroke:#ED1C24;stroke-width:0.2;stroke-miterlimit:3.86;}
	.st7{fill:#ED1C24;}
	.st8{fill:none;stroke:#231F20;stroke-width:9.000000e-02;stroke-miterlimit:3.86;}
	.st9{fill:none;stroke:#FFF200;stroke-width:9.000000e-02;stroke-miterlimit:3.86;}
</style>
<g id="Layer_2">
	<g id="Layer_1-2">
		<path class="st0" d="M35,203.6H9.3c0,0,11,80.8,117.6,86.9c0,0,99.5,3.9,121.6-93.8h-25.1c0,0-12.5,65.2-95,67.8
			c0,0-61.3,4.3-91-54.3L35,203.6"/>
		<ellipse class="st0" cx="127.7" cy="181.5" rx="96.2" ry="83.1"/>
		<ellipse class="st1" cx="127.7" cy="181.5" rx="96.2" ry="83.1"/>
		<path class="st2" d="M65.6,184.1c0-30.1,28.2-54.5,63.1-54.5s63.1,24.4,63.1,54.5s-28.2,54.5-63.1,54.5S65.6,214.1,65.6,184.1"/>
		<path class="st0" d="M89.9,285.4l-24,25.8c0,0,37.4,18.1,66,17.5c0,0,33,1.2,66-19.2l-29.8-24.7L89.9,285.4"/>
		<path class="st3" d="M70.8,171.5c0,0-2.4-3.5,1.8-2.6c0.6,0.2,1.3,0.1,1.9-0.1c0,0,1.2-0.7,3,0.5c0,0,3.6,2,7.3,0.6
			c1.4-0.7,3.2-0.5,4.3,0.5c0,0,2.8,2.5,5.6,0.3c0,0,3.3-2.4,3.8-3.8c2.2-3.1,5.3-5.7,9-7.6c2.5-1.6,5.5-2.7,8.6-3
			c0,0,3.6,0,3.7-3.8c0,0-1.4-5.9,1.8-6.5c0,0,4.3-2.8,16-3c0,0,5.4-1.1,5.4,3c0,0-1.1,2.4,1.9,2.3h9.7c0,0,2.3-0.4,7.2,2l10.9,4
			c0,0,2.9,0.4,3.8,2.1c0,0,0,1,2.8,0.9c0,0,1.6-0.3,0.1,1.4c0,0-1.9,1.9-1.7,5.7c0,0-0.3,1.3,0.9,4.8c0,0,1,0.9-0.9,1.9
			c-1.1,1.1-1.6,2.6-1.3,4.1l1.1,5.6c0,0,0.5,1.7-1.3,2.2c0,0-2.2-0.1-2.9,2.9c0,0-0.8,0.8,1,3.5c0,0,1.3,1.5,0.5,4.7l-0.1,2.1
			l-4,5.3l1,2.8v4.4l-2.8,0.7l-4.4,2.5l0.6,3.3l-15,11.9l-6.1-0.9l-10.4-0.2l-4.6-3.9h-8.2l-10.7-9.3l-4.6-2.1l-4.7-10.6l-12.7-4.6
			l-4.7-3.8l-6.1-7.3c0,0-1.9-1-2.5-5.7c-0.8-1.6-1.9-3.1-3.3-4.5c-0.5-0.4-0.8-1.1-0.6-1.7L70.8,171.5z"/>
		<path class="st4" d="M70.8,171.5c0,0-2.4-3.5,1.8-2.6c0.6,0.2,1.3,0.1,1.9-0.1c0,0,1.2-0.7,3,0.5c0,0,3.6,2,7.3,0.6
			c1.4-0.7,3.2-0.5,4.3,0.5c0,0,2.8,2.5,5.6,0.3c0,0,3.3-2.4,3.8-3.8c2.2-3.1,5.3-5.7,9-7.6c2.5-1.6,5.5-2.7,8.6-3
			c0,0,3.6,0,3.7-3.8c0,0-1.4-5.9,1.8-6.5c0,0,4.3-2.8,16-3c0,0,5.4-1.1,5.4,3c0,0-1.1,2.4,1.9,2.3h9.7c0,0,2.3-0.4,7.2,2l10.9,4
			c0,0,2.9,0.4,3.8,2.1c0,0,0,1,2.8,0.9c0,0,1.6-0.3,0.1,1.4c0,0-1.9,1.9-1.7,5.7c0,0-0.3,1.3,0.9,4.8c0,0,1,0.9-0.9,1.9
			c-1.1,1.1-1.6,2.6-1.3,4.1l1.1,5.6c0,0,0.5,1.7-1.3,2.2c0,0-2.2-0.1-2.9,2.9c0,0-0.8,0.8,1,3.5c0,0,1.3,1.5,0.5,4.7l-0.1,2.1
			l-4,5.3l1,2.8v4.4l-2.8,0.7l-4.4,2.5l0.6,3.3l-15,11.9l-6.1-0.9l-10.4-0.2l-4.6-3.9h-8.2l-10.7-9.3l-4.6-2.1l-4.7-10.6l-12.7-4.6
			l-4.7-3.8l-6.1-7.3c0,0-1.9-1-2.5-5.7c-0.8-1.6-1.9-3.1-3.3-4.5c-0.5-0.4-0.8-1.1-0.6-1.7L70.8,171.5z"/>
		<path class="st5" d="M99,185c0,0,4.2-4.3,10.5-3.2c0,0,3.2,1.1,3.7,2.2c0,0,1,2.5,2.6,2.6c0,0,2.4-0.3,2.4,1.2c0,0-0.6,1.9-0.3,2
			l0.7-0.1c0,0,1,0.3,0.2,1.4c0,0-0.2,0.6,0.5,0.6c0.4,0.1,0.6,0.4,0.6,0.7c0,0.1-0.1,0.2-0.2,0.3c0,0-0.4,0.3-0.2,0.5
			c0.8,0.5,1,1.5,0.5,2.2c-0.4,0.9-1.6,1.5-2.8,1.4c0,0-0.5-0.2-0.4,0.9c0.2,0.5,0.2,1,0.1,1.6c0.5,0.6,1.5,0.7,2.2,0.3
			c0.1-0.1,0.2-0.1,0.3-0.2l14.6-13c0,0,0.5-0.4,0.4-1.4c0,0,0.6-3.6-1.6-4.8c0,0-4.3-3.6-5.2-7.2c0,0-0.2-1.1-0.3-1.6
			c0,0,0.5-1.5-1.8-1.5c0,0-2.5,0.6-3.3-1.1c0,0-1.5-2.9,0.6-3.3c0.4,0.1,0.9-0.1,1.1-0.4c0-0.1,0-0.1,0-0.2c0,0,0.6-1.4,2-0.7
			c0.3,0.2,0.5,0.4,0.5,0.7c0,0-0.1,0.4,1.8,0.4c1.3,0.2,2.6-0.3,3.3-1.3c0,0,1.7-1.5,3.1-1.5c0,0,2.8-0.2,2.3,2.8
			c0,0-0.8,2.5,1.5,2.5c0,0,2.1,0.3,1.7-1.9c-0.1-1-0.7-2-1.7-2.6c0,0-2.3-2,0-3c0,0,2.5-0.9,3.8,0.6c0,0,2,1.4,1.5,3.2
			c-0.4,0.5-0.6,1.1-0.6,1.8c0,0-0.1,2,1.5,2c0,0,1.9,0,2-1c-0.1-0.9,0.3-1.8,1.1-2.4c0,0,2.5-1.6,4.3-1.3c0,0,4.8-0.3,5.1,4.4
			c0,0,0.4,2.6-1.2,4.1c0,0-1.5,0.1-1.3,2.2c0,0,0.5,3.8-7.4,7.5c-1.8,0.5-2.9,2-2.8,3.5c0,2.3,0.8,4.5,2.3,6.5c0,0,5.1,7.5,7.2,7.7
			c0,0,1,0.5,1-0.4c0,0,0.4-1.1-2-2.7c-0.9-0.2-1.6-0.9-1.6-1.7c0,0-0.1-0.8,0.3-1.1c0,0,0.9-0.5,0.9-0.9c0,0-0.4-1.2,0.5-1.1
			c0,0,0.7,0.2,0.6-0.4c-0.3-0.2-0.3-0.5-0.1-0.7c0,0,0.1-0.1,0.1-0.1c0,0,0.4-0.2,1.3,0c0,0,0.5,0.1,0.5-0.4c0,0-0.5-0.8-0.8-0.8
			c0,0-0.4-1,1.5-1.1c0.7-0.1,1.5-0.1,2.2-0.1c0,0,0.6,0.3,2.1-1.1c1.3-1.1,3-1.7,4.9-1.6c0,0,7.6,0.1,8.7,6.2c0,0,0.4,4.7-1.1,6.7
			c0,0-0.8,1.9-7.3,3.1c0,0-3.7-0.3-3.7,1.3c0,0,1.1,10.3-4.7,14.7c0,0-8.3,5.4-10,8.6c0,0,0,1.1-3.6-0.2c0,0-4.6-0.8-7-0.1
			c0,0-1.8,0.7-4.3-1.4c-1.5-1.3-3.2-2.4-5-3.3c-2.4-1.2-4.9-2.1-7.5-2.8c0,0-3.7-0.6-7.6-5.4c0,0-3.4-4.3-4.2-7.1
			c0,0-0.3-3.8-2.3-4.1c-2.4-0.6-4.5-1.7-6.2-3.2c0,0-2.8-1.8-3.4-6.1c-0.1-2.2,0.8-4.4,2.5-6.1L99,185 M135.5,194.1l-5.7,6.1
			c-3.8,3.3-3.7,5.2-3.7,5.2c-1.4,5.4,0.5,8,0.5,8l4.4,7.3c0.6,1.4,2.8-0.2,2.8-0.2l3.2-3.6c1.1-1.3,1.4-3,0.7-4.5l-0.4-2.3
			c-0.1-2.3,4.3-2.3,4.3-2.3c4.1-2,3.9-3.2,3.9-3.2c0.7-1.7,0.3-3.6-1-5.1l-5.1-7.1C137.6,190.8,135.5,194.1,135.5,194.1
			L135.5,194.1z"/>
		<path class="st5" d="M55.5,187.2l-14-0.6l0.2-3.9c0-1,0.1-1.9,0.4-2.9c0.2-0.7,0.8-1.3,1.5-1.7c0.8-0.4,1.8-0.6,2.8-0.6
			c0.8,0,1.5,0.2,2.1,0.5c0.5,0.3,1,0.6,1.3,1.1c0.3,0.4,0.5,0.8,0.6,1.3c0.1,0.8,0.1,1.7,0,2.5l-0.1,1.6l5.3,0.2L55.5,187.2z
			 M44,184.2l4,0.2l0.1-1.3c0.1-0.6,0-1.3-0.1-1.9c-0.1-0.3-0.4-0.6-0.7-0.8c-0.7-0.4-1.7-0.4-2.4,0c-0.4,0.2-0.6,0.6-0.7,0.9
			c-0.1,0.6-0.2,1.2-0.2,1.7L44,184.2z"/>
		<path class="st5" d="M56.4,176l-13.7-2.7l1.3-5c0.2-0.9,0.6-1.8,1.1-2.7c0.4-0.5,1-0.9,1.7-1.1c1.7-0.5,3.6,0,4.6,1.2
			c0.6,0.8,0.8,1.7,0.6,2.6c0.4-0.4,0.9-0.8,1.5-1c0.8-0.4,1.7-0.7,2.6-0.9l3.1-0.9l-0.8,2.8l-3.4,1.1c-0.8,0.2-1.6,0.5-2.3,0.9
			c-0.3,0.1-0.6,0.4-0.8,0.6c-0.2,0.4-0.4,0.8-0.5,1.2l-0.1,0.5l5.7,1.1L56.4,176z M49.1,172l0.5-1.8c0.2-0.7,0.4-1.4,0.4-2.2
			c0-0.3-0.2-0.6-0.4-0.8c-0.3-0.2-0.6-0.4-1-0.5c-0.4-0.1-0.8-0.1-1.1,0.1c-0.4,0.2-0.7,0.5-0.8,0.8c-0.1,0.2-0.3,0.8-0.5,1.7
			l-0.5,1.9L49.1,172z"/>
		<polygon class="st5" points="59.9,163.7 46.6,159.8 47.5,157.5 60.8,161.4 		"/>
		<polygon class="st5" points="61.4,158.9 49,153.2 51,150 60.7,151.9 53.4,146.2 55.4,142.9 67.8,148.6 66.5,150.6 56.8,146.1 
			65.2,152.7 64,154.8 52.9,152.4 62.7,156.9 		"/>
		<path class="st5" d="M77.6,138.6l-2,2l-3.2-1l-3.7,3.7l1.6,2.6l-2,2l-7-11.5l2-2L77.6,138.6z M70,138.8l-5.2-1.7l2.7,4.2L70,138.8
			z"/>
		<path class="st5" d="M78.6,137.9l-8.3-9.8l4.8-3c0.9-0.6,1.8-1.1,2.9-1.4c0.7-0.2,1.5-0.1,2.1,0.1c0.7,0.3,1.4,0.7,1.8,1.2
			c0.6,0.7,0.9,1.5,0.8,2.3c-0.2,0.9-0.7,1.7-1.5,2.3c0.6-0.1,1.3,0,1.9,0.1c0.9,0.2,1.8,0.5,2.6,0.8l3,1.1l-2.7,1.7l-3.4-1.1
			c-0.8-0.3-1.6-0.5-2.4-0.7c-0.3-0.1-0.7-0.1-1,0c-0.5,0.2-0.9,0.4-1.3,0.6l-0.5,0.3l3.4,4.1L78.6,137.9z M76.1,130.8l1.7-1
			c0.7-0.4,1.4-0.9,2-1.4c0.2-0.2,0.3-0.5,0.3-0.8c0-0.3-0.2-0.6-0.4-0.9c-0.2-0.3-0.6-0.5-1-0.6c-0.4-0.1-0.8,0-1.2,0.2
			c-0.2,0.1-0.8,0.4-1.7,1l-1.8,1.1L76.1,130.8z"/>
		<polygon class="st5" points="92.9,129.7 90.4,125.1 82.3,120.6 85.3,119.4 90.6,122.6 91.2,117 94.2,115.8 93,124.1 95.4,128.7 		
			"/>
		<polygon class="st5" points="107.1,124.7 104,112.9 106.8,112.3 108,117 113.4,115.9 112.1,111.3 114.9,110.7 118.1,122.6 
			115.3,123.1 113.9,117.9 108.5,119 109.9,124.2 		"/>
		<polygon class="st5" points="121.4,122.2 120,110.2 130.3,109.2 130.6,111.3 123.1,112 123.4,114.6 130.3,114 130.6,116 
			123.6,116.7 124,119.9 131.8,119.2 132,121.3 		"/>
		<path class="st5" d="M146.3,123.4l-3-0.4l-0.7-2.9l-5.6-0.8l-1.7,2.6l-3-0.4l7.6-11.3l3,0.4L146.3,123.4z M142,118l-1.1-4.7
			l-2.7,4.2L142,118z"/>
		<polygon class="st5" points="148.2,123.9 152.5,112.5 155.2,113.2 151.6,122.7 158.3,124.6 157.6,126.6 		"/>
		<polygon class="st5" points="160.8,128.1 166.3,119.2 162.6,117.5 163.7,115.7 173.6,120.2 172.5,122 168.8,120.3 163.4,129.2 		
			"/>
		<polygon class="st5" points="168.7,131.7 177.4,122.2 179.7,123.7 176.2,127.5 180.6,130.4 184,126.7 186.2,128.2 177.6,137.7 
			175.3,136.2 179.1,132 174.8,129.1 171,133.3 		"/>
		<path class="st5" d="M192.9,147.1l0.9,2.4c-1.3,0.5-2.7,0.5-4,0.2c-1.3-0.4-2.4-1.1-3.1-2.1c-1-1.2-1.4-2.7-1-4.2
			c0.4-1.6,1.6-3,3.2-3.9c1.5-1.1,3.5-1.6,5.5-1.4c1.8,0.2,3.4,1.1,4.3,2.4c0.9,1.1,1.4,2.4,1.1,3.8c-0.2,0.8-0.6,1.6-1.3,2.3
			l-2.1-1.7c0.5-0.4,0.8-1,0.8-1.6c0-0.6-0.2-1.2-0.6-1.7c-0.5-0.7-1.4-1.2-2.4-1.2c-1.3,0-2.6,0.4-3.5,1.1
			c-1.2,0.6-2.1,1.5-2.6,2.5c-0.3,0.8-0.1,1.6,0.5,2.3c0.4,0.5,1,0.9,1.7,1C191.2,147.5,192.1,147.4,192.9,147.1z"/>
		<path class="st5" d="M196.1,163.4L195,161l2.5-2l-2.2-4.5l-3.4,0.2l-1.1-2.4l15-0.4l1.1,2.4L196.1,163.4z M199.2,157.4l4-3.3
			l-5.5,0.3L199.2,157.4z"/>
		<path class="st5" d="M196.6,164.7l13.7-2.7l1.3,5c0.3,0.9,0.4,1.9,0.4,2.8c-0.1,0.6-0.4,1.2-0.9,1.7c-0.5,0.5-1.3,0.8-2,0.9
			c-0.9,0.2-1.9,0.1-2.7-0.3c-0.9-0.5-1.6-1.2-1.9-2.1c-0.2,0.5-0.5,1-0.8,1.5c-0.6,0.6-1.2,1.2-1.9,1.8l-2.3,2l-0.8-2.8l2.5-2.3
			c0.6-0.5,1.2-1.1,1.7-1.7c0.2-0.3,0.3-0.5,0.4-0.8c0-0.4,0-0.8-0.2-1.2L203,166l-5.7,1.1L196.6,164.7z M205.1,165.6l0.5,1.8
			c0.1,0.7,0.4,1.4,0.7,2.1c0.2,0.2,0.4,0.4,0.8,0.5c0.4,0.1,0.8,0.1,1.1,0c0.4-0.1,0.8-0.3,1-0.5c0.2-0.3,0.4-0.7,0.3-1
			c0-0.2-0.2-0.8-0.4-1.7l-0.5-1.9L205.1,165.6z"/>
		<polygon class="st5" points="199.8,177.1 213.8,175.9 214.8,184.8 212.5,185 211.7,178.5 208.6,178.8 209.3,184.8 207,185 
			206.3,179 202.5,179.4 203.3,186.1 200.9,186.3 		"/>
		<polygon class="st5" points="17.9,213.6 27.9,211.1 28.8,213.7 22.5,216.9 29.8,216.8 30.6,219.4 20.7,221.9 20.1,220.2 28,218.3 
			19.6,218.5 19,216.9 26.3,213.3 18.5,215.2 		"/>
		<polygon class="st5" points="21.7,223.9 31.4,220.8 32.2,222.5 22.4,225.6 		"/>
		<polygon class="st5" points="23.2,227.4 32.6,223.6 33.4,225.2 28.9,231.1 35.2,228.5 36,230.1 26.6,233.8 25.7,232.2 30.2,226.4 
			24,228.9 		"/>
		<polygon class="st5" points="27.9,235.7 36.9,231.4 38,233 28.9,237.3 		"/>
		<path class="st5" d="M32.5,237.1l1.3,1.4c-0.5,0.3-0.8,0.8-0.9,1.2c-0.1,0.5,0.1,0.9,0.4,1.3c0.2,0.4,0.6,0.7,1.1,0.9
			c0.4,0.1,0.8,0.1,1.1-0.1c0.2-0.1,0.3-0.3,0.4-0.4c0.1-0.2,0.1-0.5,0-0.8c0-0.2-0.2-0.7-0.5-1.4c-0.3-0.7-0.4-1.4-0.4-2.2
			c0.1-0.7,0.6-1.3,1.3-1.7c0.4-0.2,1-0.4,1.5-0.3c0.6,0,1.1,0.2,1.6,0.5c0.6,0.4,1,0.8,1.4,1.3c0.6,0.7,0.9,1.6,0.8,2.5
			c-0.1,0.7-0.6,1.4-1.4,1.8l-1.1-1.5c0.4-0.2,0.6-0.6,0.7-0.9c0-0.4-0.1-0.8-0.4-1.1c-0.2-0.4-0.6-0.7-1.1-0.9
			c-0.2-0.1-0.5-0.1-0.7,0.1c-0.2,0.1-0.3,0.3-0.4,0.5c0,0.6,0.2,1.2,0.4,1.7c0.3,0.6,0.5,1.3,0.6,2c0,0.5-0.1,0.9-0.3,1.3
			c-0.3,0.4-0.6,0.8-1.1,1.1c-1,0.6-2.4,0.5-3.4-0.1c-0.6-0.4-1.1-0.9-1.5-1.5c-0.6-0.8-0.9-1.7-0.8-2.6
			C31.2,238.5,31.7,237.7,32.5,237.1z"/>
		<polygon class="st5" points="37.1,247.9 43.9,243.3 42,241.2 43.4,240.3 48.4,245.9 47.1,246.8 45.2,244.8 38.4,249.4 		"/>
		<path class="st5" d="M41.5,252.5l7.5-6.2L52,249c0.6,0.5,1.1,1.1,1.5,1.7c0.2,0.4,0.3,0.9,0.1,1.4c-0.1,0.5-0.4,0.9-0.9,1.3
			c-0.5,0.4-1.1,0.7-1.9,0.7c-0.8,0-1.5-0.3-2.1-0.7c0.1,0.4,0.2,0.8,0.1,1.2c-0.1,0.6-0.2,1.2-0.4,1.7l-0.6,2l-1.7-1.6l0.6-2.3
			c0.1-0.5,0.3-1.1,0.3-1.6c0-0.2,0-0.5-0.1-0.7c-0.2-0.3-0.4-0.5-0.6-0.7l-0.3-0.3l-3.1,2.6L41.5,252.5z M47.2,250.2l1.1,0.9
			c0.4,0.4,0.9,0.8,1.4,1.1c0.2,0.1,0.5,0.1,0.7,0.1c0.3,0,0.5-0.2,0.7-0.3c0.2-0.2,0.4-0.4,0.4-0.7c0-0.3-0.1-0.5-0.3-0.8
			c-0.1-0.1-0.5-0.4-1-0.9l-1.1-1L47.2,250.2z"/>
		<polygon class="st5" points="50.9,260.4 53.7,257.5 54.6,251.4 56.5,252.8 55.7,256.9 60.2,255.5 62,256.8 55.3,258.7 52.5,261.6 
					"/>
		<path class="st5" d="M62.3,262.5c0.4-0.7,1.1-1.3,1.8-1.8c0.5-0.3,1-0.5,1.6-0.6c0.5-0.1,1.1-0.2,1.6-0.1c0.8,0.1,1.5,0.3,2.1,0.7
			c1.2,0.6,2.1,1.6,2.4,2.7c0.3,1.2,0,2.5-0.9,3.6c-0.6,1.1-1.8,1.9-3.2,2.3c-1.3,0.3-2.8,0.1-3.9-0.6c-1.2-0.6-2.1-1.6-2.4-2.7
			C61.2,264.8,61.5,263.5,62.3,262.5z M64.2,263.4c-0.6,0.7-0.8,1.5-0.7,2.3c0.1,0.7,0.6,1.2,1.3,1.6c0.7,0.4,1.5,0.5,2.3,0.3
			c0.9-0.3,1.6-0.9,2.1-1.7c0.6-0.7,0.8-1.5,0.7-2.3c-0.1-0.7-0.6-1.2-1.3-1.6c-0.7-0.4-1.5-0.5-2.3-0.3
			C65.4,262.1,64.6,262.7,64.2,263.4L64.2,263.4z"/>
		<polygon class="st5" points="70.1,271.7 74.6,263.6 81,266.3 80.2,267.7 75.7,265.8 74.6,267.7 78.5,269.3 77.8,270.7 73.9,269.1 
			72,272.5 		"/>
		<polygon class="st5" points="82.3,276.3 85.7,267.8 87.7,268.4 86.4,271.8 90.2,272.9 91.6,269.6 93.6,270.2 90.2,278.6 88.2,278 
			89.7,274.3 85.8,273.2 84.3,276.9 		"/>
		<polygon class="st5" points="92.7,279.2 95.2,270.5 102.6,272.1 102.2,273.5 96.8,272.4 96.2,274.3 101.2,275.4 100.8,276.9 
			95.8,275.8 95.1,278.1 100.7,279.3 100.3,280.8 		"/>
		<path class="st5" d="M111.5,282.5l-2.3-0.3l-0.5-2.2l-4.1-0.6l-1.2,1.9l-2.2-0.3l5.6-8.3l2.2,0.3L111.5,282.5z M108.4,278.5
			l-0.8-3.5l-2,3.1L108.4,278.5z"/>
		<polygon class="st5" points="113,282.5 114.1,273.7 116.2,273.9 115.3,281.2 120.5,281.7 120.3,283.2 		"/>
		<polygon class="st5" points="123.4,283.5 123.8,276 120.8,275.9 120.8,274.4 129.1,274.7 129,276.3 125.9,276.1 125.5,283.6 		"/>
		<polygon class="st5" points="130.3,283.7 129.7,274.7 131.8,274.6 132,278.2 136.1,278 135.9,274.4 138,274.3 138.6,283.3 
			136.5,283.4 136.2,279.5 132.1,279.7 132.4,283.6 		"/>
		<path class="st5" d="M154.2,280l-0.9,1.5c-0.7-0.2-1.3-0.4-1.9-0.7c-0.3,0.4-0.7,0.7-1.1,0.9c-0.5,0.3-1,0.4-1.6,0.5
			c-1.1,0.2-2.2,0.1-3.1-0.5c-0.6-0.4-1-0.9-1.1-1.5c-0.1-0.6,0-1.1,0.3-1.6c0.4-0.6,0.9-1.1,1.5-1.5c-0.4-0.3-0.7-0.6-1-0.9
			c-0.2-0.3-0.4-0.6-0.5-0.9c-0.1-0.5,0-1.1,0.4-1.5c0.5-0.5,1.2-0.8,2-0.9c0.7-0.2,1.5-0.1,2.2,0.2c0.6,0.3,1,0.8,1.1,1.3
			c0.1,0.4,0,0.7-0.1,1.1c-0.3,0.5-0.7,1-1.2,1.3l1.8,1.4c0.1-0.4,0.2-0.7,0.2-1.1l1.9,0.1c0,0.4-0.1,0.8-0.2,1.3
			c-0.1,0.2-0.2,0.5-0.3,0.7c0.3,0.2,0.6,0.3,1,0.4C153.6,279.8,153.9,279.9,154.2,280z M147.4,278c-0.4,0.2-0.7,0.5-0.9,0.9
			c-0.2,0.3-0.2,0.6-0.1,0.9c0.1,0.3,0.3,0.6,0.6,0.8c0.3,0.2,0.7,0.2,1.1,0.2c0.3,0,0.6-0.2,0.8-0.3c0.3-0.2,0.6-0.4,0.8-0.7
			L147.4,278z M147.8,276l0.5-0.4c0.3-0.2,0.4-0.5,0.4-0.9c0-0.2-0.2-0.4-0.4-0.5c-0.2-0.1-0.5-0.2-0.8-0.1c-0.3,0-0.5,0.1-0.7,0.3
			c-0.1,0.1-0.2,0.3-0.1,0.5c0.1,0.3,0.3,0.5,0.6,0.7L147.8,276z"/>
		<path class="st5" d="M165.1,275h2.1c0.1,0.9-0.2,1.7-0.7,2.5c-0.6,0.7-1.4,1.1-2.4,1.4c-1.2,0.4-2.5,0.2-3.6-0.3
			c-1.2-0.7-2.1-1.7-2.4-2.8c-0.5-1.2-0.5-2.5,0.1-3.7c0.6-1,1.6-1.8,2.9-2.1c1.1-0.3,2.3-0.3,3.3,0.2c0.7,0.3,1.2,0.8,1.6,1.3
			l-1.8,0.9c-0.2-0.4-0.6-0.7-1.1-0.9c-0.5-0.1-1-0.1-1.5,0c-0.7,0.2-1.3,0.6-1.5,1.1c-0.3,0.8-0.3,1.6,0.1,2.4
			c0.2,0.8,0.7,1.6,1.5,2.1c0.6,0.3,1.3,0.4,2,0.2c0.5-0.1,0.9-0.4,1.2-0.8C165.1,276.2,165.2,275.6,165.1,275z"/>
		<polygon class="st5" points="170.3,277 166.3,268.7 168.2,268 169.8,271.2 173.6,269.9 172,266.6 173.9,265.9 177.9,274.2 
			176,274.9 174.2,271.3 170.5,272.6 172.2,276.2 		"/>
		<polygon class="st5" points="180.1,273.2 175.4,265.2 177.3,264.3 182,272.3 		"/>
		<polygon class="st5" points="184,271.5 179,263.7 180.8,262.9 185,269.3 189.5,267.1 190.4,268.5 		"/>
		<path class="st5" d="M186.3,260.3l3.1-1.9c0.5-0.3,1.1-0.6,1.7-0.8c0.6-0.2,1.2-0.2,1.8-0.1c0.6,0.1,1.3,0.4,1.8,0.7
			c0.7,0.4,1.2,1,1.7,1.6c0.4,0.5,0.8,1.1,1,1.7c0.2,0.6,0.3,1.3,0.1,1.9c-0.1,0.5-0.4,0.9-0.7,1.3c-0.4,0.4-0.9,0.8-1.4,1.1
			l-3.2,1.9L186.3,260.3z M189,260.5l3.9,4.9l1.3-0.8c0.4-0.2,0.7-0.4,1-0.7c0.2-0.2,0.4-0.5,0.4-0.7c0.1-0.3,0-0.6-0.1-0.9
			c-0.2-0.5-0.5-1-0.9-1.5c-0.3-0.4-0.7-0.8-1.2-1.2c-0.3-0.2-0.7-0.4-1-0.4c-0.4,0-0.7,0-1.1,0.1c-0.5,0.2-1,0.5-1.5,0.8L189,260.5
			z"/>
		<polygon class="st5" points="205.5,259.1 196.5,254.3 198,253 204.1,256.4 200.4,250.9 202.2,249.4 208.5,252.7 204.6,247.3 
			206,246 211.6,253.8 210,255.2 203.1,251.7 207.1,257.7 		"/>
		<polygon class="st5" points="214.1,251.2 206.1,245.5 210.9,240.4 212.3,241.4 208.8,245.1 210.6,246.3 213.8,242.9 215.2,243.8 
			211.9,247.3 214.1,248.8 217.7,244.9 219.1,245.9 		"/>
		<polygon class="st5" points="220.4,244.2 211.8,239.3 213,237.8 220.1,241.8 223,238 224.4,238.9 		"/>
		<polygon class="st5" points="225.3,237.1 216,233.1 219.3,227.6 220.8,228.3 218.5,232.1 220.7,233.1 222.7,229.8 224.3,230.5 
			222.3,233.8 226.2,235.5 		"/>
		<path class="st5" d="M232.4,223.1l-0.8,1.8h-2.5l-1.5,3.3l1.9,1.4l-0.8,1.8l-8.2-6.5l0.8-1.8L232.4,223.1z M227.2,224.9h-4.1
			l3.1,2.3L227.2,224.9z"/>
		<path class="st5" d="M233.1,221.9l-10-2.5l1.2-3.7c0.2-0.7,0.5-1.3,0.9-1.9c0.3-0.4,0.8-0.6,1.3-0.8c1.3-0.3,2.6,0.1,3.4,1
			c0.4,0.6,0.5,1.2,0.4,1.9c0.3-0.3,0.7-0.5,1.1-0.7c0.6-0.2,1.3-0.4,1.9-0.6l2.3-0.6l-0.7,2.1l-2.6,0.7c-0.6,0.2-1.2,0.3-1.8,0.6
			c-0.2,0.1-0.4,0.2-0.6,0.4c-0.2,0.3-0.3,0.6-0.4,0.9l-0.1,0.3l4.2,1L233.1,221.9z M227.9,218.8l0.4-1.3c0.2-0.5,0.3-1.1,0.4-1.6
			c0-0.2-0.1-0.4-0.3-0.6c-0.2-0.2-0.4-0.3-0.7-0.4c-0.3-0.1-0.6-0.1-0.9,0c-0.3,0.1-0.5,0.3-0.6,0.6c-0.1,0.1-0.2,0.6-0.4,1.3
			l-0.4,1.4L227.9,218.8z"/>
		<polygon class="st5" points="235.9,212.9 225.7,211 227.4,204.5 229.1,204.9 227.9,209.6 230.2,210 231.2,205.6 233,205.9 
			231.9,210.3 234.6,210.8 235.8,205.9 237.5,206.3 		"/>
		<path class="st6" d="M35,203H9.3c0,0,11,80.8,117.6,86.9c0,0,99.5,3.9,121.6-93.8h-25.1"/>
		<path class="st1" d="M35,203H9.3c0,0,11,80.8,117.6,86.9c0,0,99.5,3.9,121.6-93.8h-25.1"/>
		<polygon class="st5" points="80.5,306.9 81.5,305.2 90.8,301.6 85.7,299.4 86.6,297.8 94.6,301.3 93.7,302.7 84.1,306.5 
			90.2,309.2 89.3,310.7 		"/>
		<polygon class="st5" points="91,311.3 95.8,301.6 98.1,302.4 93.3,312.2 		"/>
		<polygon class="st5" points="96.1,313.1 99.9,303.1 103.4,304.1 102.9,311.5 107.5,305.3 111,306.3 107.2,316.3 105.1,315.6 
			108.1,307.8 102.8,315 100.5,314.4 101.2,305.8 98.2,313.7 		"/>
		<path class="st5" d="M112.4,306.4l4.8,0.7c0.7,0.1,1.4,0.2,2.1,0.4c0.4,0.1,0.8,0.4,1.1,0.6c0.3,0.3,0.6,0.6,0.8,1
			c0.2,0.4,0.2,0.8,0.1,1.3c-0.1,0.5-0.3,0.9-0.7,1.3c-0.4,0.3-0.9,0.6-1.4,0.7c0.6,0.2,1.2,0.7,1.5,1.2c0.3,0.5,0.4,1.1,0.3,1.7
			c-0.1,0.5-0.3,0.9-0.7,1.3c-0.3,0.4-0.7,0.7-1.3,0.9c-0.5,0.2-1.1,0.3-1.7,0.2c-0.4,0-1.4-0.2-2.9-0.4l-4.1-0.6L112.4,306.4z
			 M113.6,312.6l-0.6,2.8l2.3,0.3c0.5,0.1,1.1,0.2,1.7,0.2c0.4,0,0.7-0.1,1-0.3c0.5-0.4,0.7-1.1,0.4-1.7c-0.1-0.3-0.4-0.5-0.7-0.6
			c-0.7-0.2-1.4-0.4-2.1-0.5L113.6,312.6z M114.4,308.5l-0.5,2.4l1.6,0.2c0.9,0.1,1.5,0.2,1.8,0.2c0.4,0,0.7-0.1,1-0.2
			c0.3-0.2,0.5-0.5,0.5-0.8c0.1-0.3,0-0.6-0.1-0.8c-0.2-0.2-0.5-0.4-0.8-0.5c-0.2,0-0.9-0.2-2.1-0.3L114.4,308.5z"/>
		<path class="st5" d="M134.1,318.8l-2.6-0.1l-1-2.4l-4.9-0.1l-1.1,2.4l-2.6-0.1l5.1-10.3l2.6,0.1L134.1,318.8z M129.8,314.5
			l-1.5-3.9l-1.8,3.8L129.8,314.5z"/>
		<path class="st5" d="M134.8,308.4l4.8-0.5c0.7-0.1,1.4-0.1,2.2-0.1c0.5,0,0.9,0.1,1.3,0.3c0.4,0.2,0.8,0.4,1,0.8
			c0.3,0.3,0.5,0.8,0.5,1.2c0.1,0.5,0,1-0.3,1.4c-0.3,0.4-0.6,0.8-1.1,1c0.7,0.1,1.3,0.3,1.8,0.8c0.5,0.4,0.8,1,0.8,1.6
			c0.1,0.5,0,1-0.2,1.4c-0.2,0.4-0.5,0.9-0.9,1.2c-0.4,0.3-1,0.6-1.6,0.7c-0.4,0.1-1.4,0.2-2.9,0.4l-4.1,0.4L134.8,308.4z
			 M137.5,309.9l0.3,2.4l1.6-0.2c0.9-0.1,1.5-0.2,1.8-0.2c0.4-0.1,0.7-0.2,0.9-0.5c0.2-0.2,0.3-0.6,0.2-0.9c0-0.6-0.6-1-1.3-1
			c0,0-0.1,0-0.1,0c-0.2,0-0.9,0.1-2.1,0.2L137.5,309.9z M138.1,314l0.4,2.8l2.3-0.2c0.6,0,1.1-0.1,1.7-0.2c0.3-0.1,0.6-0.3,0.8-0.5
			c0.2-0.3,0.3-0.6,0.2-0.9c0-0.3-0.2-0.6-0.4-0.8c-0.2-0.2-0.5-0.3-0.8-0.4c-0.7-0.1-1.5,0-2.2,0.1L138.1,314z"/>
		<polygon class="st5" points="151.1,317 144.8,307.6 147.3,307 151.5,313.4 151.1,306 153.9,305.2 158.5,311.7 157.7,304.2 
			160.1,303.6 160.9,314.4 158.4,315.1 153.4,308.1 153.7,316.3 		"/>
		<polygon class="st5" points="165.6,312.6 160.1,303.2 168.1,299.7 169.1,301.2 163.2,303.8 164.4,305.9 169.9,303.5 170.8,305.1 
			165.4,307.5 166.9,310 172.9,307.4 173.8,308.9 		"/>
		<path class="st5" d="M50.5,220.9l-1.4-2.6l2.6-2.3l-2.6-4.8l-3.6,0.3L44,209l16.2-0.9l1.4,2.5L50.5,220.9z M53.5,214.3l4.2-3.7
			l-5.9,0.4L53.5,214.3z"/>
		<polygon class="st5" points="55.3,227 67.2,218.9 69,221 64.4,224.2 68,228.2 72.7,225.1 74.6,227.1 62.7,235.2 60.8,233.1 
			66,229.6 62.3,225.5 57.1,229 		"/>
		<polygon class="st5" points="65.8,237.7 75.9,228 84.2,234.4 82.5,236.1 76.5,231.4 74.2,233.6 79.9,237.9 78.1,239.6 72.5,235.2 
			69.8,237.8 76.1,242.7 74.3,244.4 		"/>
		<path class="st5" d="M89.3,252.3l-2.8-1.5l0.6-3.1l-5.2-2.7l-2.9,2l-2.8-1.4l12.8-8.6l2.8,1.4L89.3,252.3z M87.6,245.4l1.1-5.1
			l-4.6,3.2L87.6,245.4z"/>
		<polygon class="st5" points="91.8,253.2 97.5,241.2 100.3,242.2 95.6,252.2 102.7,254.6 101.7,256.7 		"/>
		<polygon class="st5" points="106.6,257.7 109.7,247.2 105.3,246.2 105.9,244.1 117.6,246.6 117,248.7 112.6,247.8 109.6,258.3 		
			"/>
		<polygon class="st5" points="116.8,259.7 118.4,246.7 121.4,247 120.8,252.1 126.7,252.6 127.3,247.5 130.4,247.8 128.9,260.8 
			125.8,260.5 126.5,254.8 120.6,254.3 119.9,260 		"/>
		<polygon class="st5" points="137.6,259.5 136.5,254.1 129.6,247.4 133.1,246.9 137.6,251.5 140,245.8 143.5,245.3 139.5,253.6 
			140.6,259 		"/>
		<polygon class="st5" points="154.2,256.3 148.7,244.1 151.5,243.2 160.9,249.4 157.3,241.2 159.9,240.3 165.4,252.5 162.5,253.5 
			153.2,247.4 156.8,255.4 		"/>
		<path class="st5" d="M180.9,244.9l-2.8,1.5l-2.9-2l-5.2,2.7l0.7,3.1l-2.8,1.4l-2.7-13.8l2.8-1.4L180.9,244.9z M173.1,242.9
			l-4.7-3.2l1.1,5.1L173.1,242.9z"/>
		<polygon class="st5" points="184.5,242.4 176.4,234.1 173,236.6 171.4,234.9 180.6,228.2 182.2,229.9 178.8,232.4 186.9,240.7 		
			"/>
		<polygon class="st5" points="192.1,236.6 181.3,227.5 183.4,225.6 194.2,234.7 		"/>
		<path class="st5" d="M190.4,228.9c-1.1-0.7-2-1.5-2.7-2.5c-0.4-0.6-0.7-1.3-0.9-2c-0.2-0.7-0.2-1.4,0-2.1c0.3-0.9,0.8-1.8,1.4-2.6
			c1.1-1.4,2.8-2.4,4.8-2.7c2.1-0.2,4.2,0.4,5.9,1.5c1.8,1,3,2.6,3.5,4.3c0.3,1.7-0.2,3.4-1.5,4.8c-1.1,1.4-2.8,2.4-4.8,2.7
			C194.1,230.6,192,230,190.4,228.9z M192.2,226.7c1.1,0.8,2.4,1.2,3.8,1.2c1.2-0.1,2.2-0.6,2.9-1.4c0.7-0.8,1-1.8,0.7-2.8
			c-0.4-1.2-1.3-2.2-2.5-2.8c-1-0.8-2.4-1.2-3.8-1.2c-1.2,0.1-2.2,0.6-2.8,1.5c-0.7,0.8-1,1.8-0.8,2.8
			C190.2,225.1,191.1,226,192.2,226.7L192.2,226.7z"/>
		<polygon class="st5" points="206.8,219.7 193.1,214.2 194.4,211.9 206.2,210.7 197,207 198.2,204.8 211.9,210.3 210.6,212.7 
			199,213.8 208,217.5 		"/>
		<path class="st5" d="M43.6,198.5c0.1-2.2,2.3-3.8,5-3.7c2.6,0.1,4.6,1.9,4.5,4.1c-0.1,2.1-2.2,3.7-4.7,3.7
			C45.7,202.5,43.6,200.7,43.6,198.5C43.6,198.5,43.6,198.5,43.6,198.5"/>
		<path class="st5" d="M204.3,198.5c0.1-2.2,2.3-3.8,5-3.7c2.6,0.1,4.6,1.9,4.5,4.1c-0.1,2.1-2.2,3.7-4.7,3.7
			C206.3,202.5,204.2,200.7,204.3,198.5C204.3,198.5,204.3,198.5,204.3,198.5"/>
		<path class="st1" d="M90.7,284.5l-24.8,26.7c0,0,37.5,18.1,66,17.5c0,0,33,1.2,66-19.2l-31.1-25.7"/>
		<polygon class="st7" points="177.3,58.9 147.5,77.2 158.9,106.9 129.1,88.6 99.3,106.9 110.7,77.2 80.9,58.9 117.8,58.9 
			129.1,29.3 140.5,58.9 		"/>
		<polygon class="st8" points="177.3,58.9 147.5,77.2 158.9,106.9 129.1,88.6 99.3,106.9 110.7,77.2 80.9,58.9 117.8,58.9 
			129.1,29.3 140.5,58.9 		"/>
		<path class="st3" d="M107.1,40c0,0,0.4-4.4,8.8-3.9c0,0,0.8-2.5,4.9-2.3c0,0,6.2-0.1,7,3.8c0,0,1.4,11.3,2.2,12.7
			c0,0,0.1,0.7,1.6,1.4l33.2,20c0,0,1.9,2.2-2.9,2.1l-5.4,0.3l-9.5,27.4h-37.4l-3.3-15.5h-2.5c-0.5-3.6,1.2-7.1,4.4-9.5
			c0,0,1-0.8,1-3.8l-0.5-1.9c-0.6-3.4-0.1-6.8,1.4-10c0.7-1,1.5-1.9,2.5-2.8c1.1-0.8,1.9-1.9,2-3.1c0,0,0.9-4,2.2-7.6
			c0.4-2,0.1-4-1-5.8c-0.5-1.4-2.2-2.2-3.9-1.9c0,0-2.5-0.3-3.3,0.4L107.1,40z"/>
		<path class="st8" d="M107.1,40c0,0,0.4-4.4,8.8-3.9c0,0,0.8-2.5,4.9-2.3c0,0,6.2-0.1,7,3.8c0,0,1.4,11.3,2.2,12.7
			c0,0,0.1,0.7,1.6,1.4l33.2,20c0,0,1.9,2.2-2.9,2.1l-5.4,0.3l-9.5,27.4h-37.4l-3.3-15.5h-2.5c-0.5-3.6,1.2-7.1,4.4-9.5
			c0,0,1-0.8,1-3.8l-0.5-1.9c-0.6-3.4-0.1-6.8,1.4-10c0.7-1,1.5-1.9,2.5-2.8c1.1-0.8,1.9-1.9,2-3.1c0,0,0.9-4,2.2-7.6
			c0.4-2,0.1-4-1-5.8c-0.5-1.4-2.2-2.2-3.9-1.9c0,0-2.5-0.3-3.3,0.4L107.1,40z"/>
		<ellipse class="st8" cx="121.3" cy="38.2" rx="1.8" ry="1.6"/>
		<path class="st8" d="M113.8,57.2c3-0.2,5.9-1.1,8.3-2.7l7.9-3.9"/>
		<path class="st8" d="M140.1,69.6l-13.5,9.9c-3.2,0.8-6.2,1.9-9.1,3.2c0,0-5.1,4.6-5.1,7c0,0-4.8-1.5-6.1-3.6c0,0,1.4-4.1,8.4-9.5
			c0,0,5-1.9,5-5.1l-0.5-3.5"/>
		<polygon class="st5" points="150.6,91.1 148.1,92.7 145.2,90.6 142.5,92.5 138.5,90.4 135.1,92.2 132,90.2 128.7,92.1 125.6,90 
			121.8,91.9 119.1,89.9 115.7,91.9 112.8,90.5 114.6,94.8 149.1,95.5 		"/>
		<polygon class="st4" points="150.6,91.1 148.1,92.7 145.2,90.6 142.5,92.5 138.5,90.4 135.1,92.2 132,90.2 128.7,92.1 125.6,90 
			121.8,91.9 119.1,89.9 115.7,91.9 112.8,90.5 114.6,94.8 149.1,95.5 		"/>
		<line class="st8" x1="150.7" y1="90.7" x2="112.4" y2="89.6"/>
		<polyline class="st9" points="113.4,92.2 115.7,93.3 118.8,91.5 121.4,93.2 125.4,91.2 128.7,93.2 132,91.3 135,93.6 138.7,91.4 
			142.5,93.9 145.3,91.7 147.9,93.7 150.2,92.2 		"/>
		<line class="st8" x1="117.5" y1="82.9" x2="153" y2="83.7"/>
		<ellipse class="st5" cx="125.3" cy="86.5" rx="3.8" ry="3.3"/>
		<ellipse class="st4" cx="125.3" cy="86.5" rx="3.8" ry="3.3"/>
		<ellipse class="st5" cx="137.8" cy="86.8" rx="3.8" ry="3.3"/>
		<ellipse class="st4" cx="137.8" cy="86.8" rx="3.8" ry="3.3"/>
		<line class="st8" x1="112.5" y1="89.6" x2="117.1" y2="101.5"/>
		<path class="st4" d="M155.5,74.1l-30.8-9c-1.7-0.8-2.6-2.4-2.3-3.9c0,0-0.8-2,2.5-4.3"/>
		<circle class="st5" cx="276.6" cy="29.6" r="0"/>
		<circle class="st5" cx="87.3" cy="-14" r="0"/>
		<path class="st5" d="M25.7,44.7"/>
	</g>
</g>
</svg>
